<?xml version="1.0" encoding="UTF-8"?>
<svg version="1.1" xmlns="http://www.w3.org/2000/svg" width="96" height="96">
<path d="M0 0 C10.81209658 -0.29254827 26.23877681 -0.08064843 34.61645508 7.68774414 C36.68241206 11.46990802 36.33464314 15.05782247 36.2578125 19.296875 C36.25356766 20.17905701 36.24932281 21.06123901 36.24494934 21.97015381 C36.22818213 24.78249883 36.19053373 27.59412226 36.15234375 30.40625 C36.13729437 32.3150938 36.12360641 34.22394886 36.11132812 36.1328125 C36.07828502 40.80756889 36.0265163 45.48178718 35.96484375 50.15625 C37.94484375 50.15625 39.92484375 50.15625 41.96484375 50.15625 C42.45984375 53.12625 42.45984375 53.12625 42.96484375 56.15625 C46.57370215 55.45829605 46.57370215 55.45829605 50.08984375 54.40625 C51.96484375 54.15625 51.96484375 54.15625 53.77734375 55.21875 C54.96484375 57.15625 54.96484375 57.15625 54.71484375 60.15625 C53.96484375 63.15625 53.96484375 63.15625 52.96484375 66.15625 C54.94484375 66.48625 56.92484375 66.81625 58.96484375 67.15625 C58.96484375 69.79625 58.96484375 72.43625 58.96484375 75.15625 C56.98484375 75.48625 55.00484375 75.81625 52.96484375 76.15625 C53.31546875 76.878125 53.66609375 77.6 54.02734375 78.34375 C55.0827313 81.50991266 54.98349039 83.01542285 53.96484375 86.15625 C53.30484375 86.81625 52.64484375 87.47625 51.96484375 88.15625 C50.15234375 87.84375 50.15234375 87.84375 47.96484375 87.15625 C46.29964856 86.81564189 44.63326909 86.48066604 42.96484375 86.15625 C42.63484375 88.13625 42.30484375 90.11625 41.96484375 92.15625 C39.65484375 92.15625 37.34484375 92.15625 34.96484375 92.15625 C34.96484375 91.49625 34.96484375 90.83625 34.96484375 90.15625 C31.65197855 90.29445269 28.33966386 90.44308778 25.02734375 90.59375 C24.08181641 90.63306641 23.13628906 90.67238281 22.16210938 90.71289062 C21.26298828 90.75478516 20.36386719 90.79667969 19.4375 90.83984375 C18.60484619 90.87650146 17.77219238 90.91315918 16.91430664 90.95092773 C14.96145517 90.94992103 14.96145517 90.94992103 13.96484375 92.15625 C12.48831711 92.25505797 11.00717139 92.28704245 9.52734375 92.2890625 C8.18542969 92.29099609 8.18542969 92.29099609 6.81640625 92.29296875 C5.40488281 92.28716797 5.40488281 92.28716797 3.96484375 92.28125 C2.55332031 92.28705078 2.55332031 92.28705078 1.11328125 92.29296875 C0.21867187 92.29167969 -0.6759375 92.29039063 -1.59765625 92.2890625 C-2.42394531 92.28793457 -3.25023438 92.28680664 -4.1015625 92.28564453 C-6.03515625 92.15625 -6.03515625 92.15625 -7.03515625 91.15625 C-8.66772383 90.99910346 -10.30650963 90.90539586 -11.9453125 90.83984375 C-12.93466797 90.79794922 -13.92402344 90.75605469 -14.94335938 90.71289062 C-15.98427734 90.67357422 -17.02519531 90.63425781 -18.09765625 90.59375 C-19.66483398 90.52897461 -19.66483398 90.52897461 -21.26367188 90.46289062 C-23.85402509 90.35643775 -26.44447811 90.2544224 -29.03515625 90.15625 C-28.70515625 88.83625 -28.37515625 87.51625 -28.03515625 86.15625 C-13.18515625 85.66125 -13.18515625 85.66125 1.96484375 85.15625 C1.96484375 83.83625 1.96484375 82.51625 1.96484375 81.15625 C0.76988281 81.05828125 -0.42507812 80.9603125 -1.65625 80.859375 C-19.63857506 79.22908332 -19.63857506 79.22908332 -26.61170959 73.96641541 C-28.66673097 71.35309049 -28.42301498 69.39428728 -28.43920898 66.09594727 C-28.45823524 64.22369225 -28.45823524 64.22369225 -28.47764587 62.31361389 C-28.47559435 60.94995966 -28.47260625 59.58630657 -28.46875 58.22265625 C-28.47331101 56.82404832 -28.47861634 55.42544263 -28.4846344 54.02684021 C-28.49357008 51.09551897 -28.49113773 48.16447008 -28.48120117 45.2331543 C-28.4697148 41.47904095 -28.48991404 37.72586869 -28.51911831 33.97187901 C-28.53747767 31.08332866 -28.53718843 28.1950039 -28.53148079 25.30640984 C-28.53132752 23.92253233 -28.53737695 22.53863958 -28.54977226 21.15481758 C-28.56467103 19.21858002 -28.5513809 17.28218774 -28.53686523 15.34594727 C-28.53669907 14.24469009 -28.5365329 13.14343292 -28.53636169 12.00880432 C-27.91622448 8.47936322 -26.82003639 7.3420907 -24.03515625 5.15625 C-16.22870761 1.90356307 -8.36925659 0.43084976 0 0 Z M12.21484375 80.15625 C11.044375 80.341875 9.87390625 80.5275 8.66796875 80.71875 C7.7759375 80.863125 6.88390625 81.0075 5.96484375 81.15625 C5.96484375 82.47625 5.96484375 83.79625 5.96484375 85.15625 C11.57484375 85.48625 17.18484375 85.81625 22.96484375 86.15625 C22.96484375 83.84625 22.96484375 81.53625 22.96484375 79.15625 C19.22562823 79.15625 15.89864831 79.56684127 12.21484375 80.15625 Z " fill="#4F5D98" transform="translate(33.03515625,1.84375)"/>
<path d="M0 0 C10.76949524 -0.29139559 26.30691562 -0.10445535 34.60986328 7.703125 C36.65634835 11.40818482 36.39368365 14.88371144 36.36328125 19.05078125 C36.36615143 19.91636154 36.36902161 20.78194183 36.37197876 21.67375183 C36.37401802 23.5036179 36.36849778 25.33350584 36.35595703 27.16333008 C36.33995958 29.94858283 36.35577978 32.7323716 36.375 35.51757812 C36.3730164 37.29948234 36.36917031 39.08138566 36.36328125 40.86328125 C36.36935394 41.68955521 36.37542664 42.51582916 36.38168335 43.36714172 C36.31771242 48.69365856 35.37147506 52.39357364 32.96484375 57.15625 C29.99484375 56.82625 27.02484375 56.49625 23.96484375 56.15625 C23.76953125 53.94270833 23.57421875 51.72916667 23.37890625 49.515625 C22.94810541 47.06087303 22.08574427 45.36159899 20.96484375 43.15625 C20.96484375 42.16625 20.96484375 41.17625 20.96484375 40.15625 C17.99484375 40.65125 17.99484375 40.65125 14.96484375 41.15625 C15.45984375 44.12625 15.45984375 44.12625 15.96484375 47.15625 C14.97484375 47.48625 13.98484375 47.81625 12.96484375 48.15625 C12.30484375 49.14625 11.64484375 50.13625 10.96484375 51.15625 C10.46984375 46.70125 10.46984375 46.70125 9.96484375 42.15625 C8.96130859 42.20845703 8.96130859 42.20845703 7.9375 42.26171875 C-4.07928825 42.60044701 -17.32023331 41.84723066 -27.03515625 34.15625 C-29.57661464 31.61479161 -28.3181507 24.75655845 -28.34765625 21.34375 C-28.37666016 20.23708984 -28.40566406 19.13042969 -28.43554688 17.99023438 C-28.44392578 16.92482422 -28.45230469 15.85941406 -28.4609375 14.76171875 C-28.47552002 13.78356201 -28.49010254 12.80540527 -28.50512695 11.79760742 C-27.90204148 8.40811043 -26.68913883 7.27967627 -24.03515625 5.15625 C-16.22870761 1.90356307 -8.36925659 0.43084976 0 0 Z " fill="#4E5C96" transform="translate(33.03515625,1.84375)"/>
<path d="M0 0 C2.31 0 4.62 0 7 0 C7.33 1.98 7.66 3.96 8 6 C11.6088584 5.30204605 11.6088584 5.30204605 15.125 4.25 C17 4 17 4 18.8125 5.0625 C20 7 20 7 19.75 10 C19 13 19 13 18 16 C19.98 16.33 21.96 16.66 24 17 C24 19.64 24 22.28 24 25 C21.03 25.495 21.03 25.495 18 26 C18.350625 26.721875 18.70125 27.44375 19.0625 28.1875 C20.11788755 31.35366266 20.01864664 32.85917285 19 36 C18.34 36.66 17.68 37.32 17 38 C15.1875 37.6875 15.1875 37.6875 13 37 C11.33480481 36.65939189 9.66842534 36.32441604 8 36 C7.67 37.98 7.34 39.96 7 42 C4.69 42 2.38 42 0 42 C0 41.34 0 40.68 0 40 C-6.6 40 -13.2 40 -20 40 C-20 38.68 -20 37.36 -20 36 C-16.535 35.505 -16.535 35.505 -13 35 C-12.45627049 31.94152152 -12 29.11227195 -12 26 C-14.475 25.01 -14.475 25.01 -17 24 C-17.04254356 22.00045254 -17.04080783 19.99958364 -17 18 C-16 17 -16 17 -13.4375 16.9375 C-12.2309375 16.9684375 -12.2309375 16.9684375 -11 17 C-11.69795395 13.3911416 -11.69795395 13.3911416 -12.75 9.875 C-13 8 -13 8 -12.0625 6.1875 C-8.68529593 4.24304917 -5.75995659 5.32197504 -2 6 C-1.34 4.02 -0.68 2.04 0 0 Z " fill="#6FC1F8" transform="translate(68,52)"/>
<path d="M0 0 C22.41650377 0.67215903 22.41650377 0.67215903 29.14038086 7.02099609 C31.68231102 11.09302338 31.56002701 14.28462473 31.49609375 18.9921875 C31.49754898 19.85635284 31.49900421 20.72051819 31.50050354 21.61087036 C31.4988474 23.43478778 31.48731798 25.25871957 31.46655273 27.08251953 C31.43766636 29.85900998 31.4459361 32.6335809 31.45898438 35.41015625 C31.45274408 37.1875092 31.44435086 38.96485615 31.43359375 40.7421875 C31.43652939 41.5653244 31.43946503 42.3884613 31.44248962 43.23654175 C31.35663154 48.54447307 30.39389695 52.25188614 28 57 C25.03 56.67 22.06 56.34 19 56 C18.8046875 53.78645833 18.609375 51.57291667 18.4140625 49.359375 C17.98326166 46.90462303 17.12090052 45.20534899 16 43 C16 42.01 16 41.02 16 40 C13.03 40.495 13.03 40.495 10 41 C7.05499848 33.77795011 5.18626243 26.37405067 3.3125 18.8125 C2.99216797 17.55501953 2.67183594 16.29753906 2.34179688 15.00195312 C2.03951172 13.79087891 1.73722656 12.57980469 1.42578125 11.33203125 C1.01453003 9.68811401 1.01453003 9.68811401 0.5949707 8.01098633 C0.04771873 5.24149165 -0.11906041 2.81145661 0 0 Z " fill="#586692" transform="translate(38,2)"/>
<path d="M0 0 C2.99801348 5.74619251 3.58677182 10.54551003 3 17 C2.505 18.485 2.505 18.485 2 20 C2.65257873 21.672233 3.31867549 23.33927151 4 25 C3.67 25.66 3.34 26.32 3 27 C0.4375 27.625 0.4375 27.625 -2 28 C-2.33 29.98 -2.66 31.96 -3 34 C-1.824375 34.1546875 -1.824375 34.1546875 -0.625 34.3125 C2 35 2 35 4 38 C-0.35590568 39.62849969 -4.23934612 40.34118446 -8.875 40.625 C-10.02742188 40.69976562 -11.17984375 40.77453125 -12.3671875 40.8515625 C-13.23601563 40.90054688 -14.10484375 40.94953125 -15 41 C-15 42.32 -15 43.64 -15 45 C-12.03 45 -9.06 45 -6 45 C-5.95745644 46.99954746 -5.95919217 49.00041636 -6 51 C-7.58937556 52.58937556 -9.23899846 52.12981143 -11.4375 52.1328125 C-12.77941406 52.13474609 -12.77941406 52.13474609 -14.1484375 52.13671875 C-15.08945312 52.13285156 -16.03046875 52.12898438 -17 52.125 C-18.41152344 52.13080078 -18.41152344 52.13080078 -19.8515625 52.13671875 C-20.74617188 52.13542969 -21.64078125 52.13414063 -22.5625 52.1328125 C-23.38878906 52.13168457 -24.21507813 52.13055664 -25.06640625 52.12939453 C-27 52 -27 52 -28 51 C-29.63256758 50.84285346 -31.27135338 50.74914586 -32.91015625 50.68359375 C-33.89951172 50.64169922 -34.88886719 50.59980469 -35.90820312 50.55664062 C-37.46958008 50.49766602 -37.46958008 50.49766602 -39.0625 50.4375 C-40.62967773 50.37272461 -40.62967773 50.37272461 -42.22851562 50.30664062 C-44.81886884 50.20018775 -47.40932186 50.0981724 -50 50 C-49.67 48.68 -49.34 47.36 -49 46 C-34.15 45.505 -34.15 45.505 -19 45 C-19 43.68 -19 42.36 -19 41 C-20.65 40.67 -22.3 40.34 -24 40 C-24.67548578 37.94037148 -25.34004312 35.87715678 -26 33.8125 C-26.37125 32.66394531 -26.7425 31.51539062 -27.125 30.33203125 C-28 27 -28 27 -28 22 C-19.42 22 -10.84 22 -2 22 C-2.66 18.7 -3.32 15.4 -4 12 C-6.475 11.505 -6.475 11.505 -9 11 C-8.67 9.68 -8.34 8.36 -8 7 C-7.01 7 -6.02 7 -5 7 C-5.495 4.03 -5.495 4.03 -6 1 C-4 0 -4 0 0 0 Z " fill="#6F75A6" transform="translate(54,42)"/>
<path d="M0 0 C7.26 0.66 14.52 1.32 22 2 C26 15.5 26 15.5 26 20 C21.66507986 20.05947299 17.33498921 20.05455936 13 20 C11.74316406 19.99419922 11.74316406 19.99419922 10.4609375 19.98828125 C8.375 19.875 8.375 19.875 5 19 C3.1193713 16.23782659 2 14.37036422 2 11 C0.02 10.34 -1.96 9.68 -4 9 C-4 8.34 -4 7.68 -4 7 C-2.35 7 -0.7 7 1 7 C0.67 4.69 0.34 2.38 0 0 Z " fill="#6A75A8" transform="translate(15,20)"/>
<path d="M0 0 C11.385 0.99 11.385 0.99 23 2 C26 14.5 26 14.5 26 19 C19.07 19 12.14 19 5 19 C3 14 3 14 3 11 C2.38511719 10.95101562 1.77023438 10.90203125 1.13671875 10.8515625 C0.32847656 10.77679688 -0.47976562 10.70203125 -1.3125 10.625 C-2.51326172 10.52058594 -2.51326172 10.52058594 -3.73828125 10.4140625 C-6 10 -6 10 -9 8 C-9 7.34 -9 6.68 -9 6 C-5.7 6.33 -2.4 6.66 1 7 C0.67 4.69 0.34 2.38 0 0 Z " fill="#6A75A8" transform="translate(20,42)"/>
<path d="M0 0 C0.84175781 0.62519531 1.68351563 1.25039063 2.55078125 1.89453125 C5.93707031 4.15901882 9.19053427 4.87782527 13.1875 5.6875 C19.53033964 7.39493107 19.53033964 7.39493107 21.50390625 9.9375 C22.29118791 12.31171065 22.68896081 14.51956088 23 17 C23.38546047 18.68989955 23.78088339 20.37756581 24.1875 22.0625 C24.46324636 23.37397661 24.73598005 24.68611248 25 26 C16.93614749 26.63245902 8.44962884 24.92738739 1.625 20.4375 C-0.87647504 16.68528744 -0.42863107 13.1470724 -0.25 8.75 C-0.23195313 7.90953125 -0.21390625 7.0690625 -0.1953125 6.203125 C-0.14830798 4.13492605 -0.07656724 2.06731559 0 0 Z " fill="#505E99" transform="translate(5,56)"/>
<path d="M0 0 C0.83752161 2.95716407 1.66930031 5.915913 2.5 8.875 C2.73847656 9.71675781 2.97695313 10.55851563 3.22265625 11.42578125 C3.44824219 12.23144531 3.67382812 13.03710938 3.90625 13.8671875 C4.11572266 14.61081543 4.32519531 15.35444336 4.54101562 16.12060547 C5 18 5 18 5 20 C-2.74842287 20.12170298 -10.29205268 19.81136288 -18 19 C-18.99 14.05 -19.98 9.1 -21 4 C-7.08695652 0 -7.08695652 0 0 0 Z " fill="#5A658B" transform="translate(32,2)"/>
<path d="M0 0 C7.55620328 -0.59264339 16.7415701 0.69971682 22.875 5.453125 C24 7 24 7 24.1875 9.9375 C22.64481705 13.91599812 20.87694963 14.56128131 17.10546875 16.23828125 C12.60584506 17.86615995 8.81923008 18.0926775 4 18 C3.32873871 15.5636811 2.66283646 13.12611117 2 10.6875 C1.71382812 9.65206055 1.71382812 9.65206055 1.421875 8.59570312 C0.62283816 5.64212051 0 3.07440781 0 0 Z " fill="#3D4A76" transform="translate(44,3)"/>
<path d="M0 0 C0.66 0.33 1.32 0.66 2 1 C2.08149592 4.02138567 2.14073421 7.04053905 2.1875 10.0625 C2.21263672 10.91005859 2.23777344 11.75761719 2.26367188 12.63085938 C2.32846972 18.2250736 1.57466587 22.01960959 -1 27 C-3.97 26.67 -6.94 26.34 -10 26 C-10.103125 24.659375 -10.20625 23.31875 -10.3125 21.9375 C-10.65546161 18.72980027 -11.21225474 16.11727745 -12.5625 13.1875 C-14 10 -14 10 -14 6 C-13.15695313 5.73445313 -12.31390625 5.46890625 -11.4453125 5.1953125 C-10.34960938 4.84210937 -9.25390625 4.48890625 -8.125 4.125 C-7.03445312 3.77695312 -5.94390625 3.42890625 -4.8203125 3.0703125 C-1.91477277 2.18824769 -1.91477277 2.18824769 0 0 Z " fill="#506395" transform="translate(67,32)"/>
<path d="M0 0 C3.24811347 2.40077952 4.68969068 4.14208601 6.0625 7.9375 C5.97939888 12.00945507 4.53529331 13.88521107 2 17 C-1.13871188 18.56935594 -3.53855822 18.35201103 -7 18 C-9.875 15.5625 -9.875 15.5625 -12 13 C-12.33 12.67 -12.66 12.34 -13 12 C-13.43784542 8.14696032 -13.30585252 6.45877878 -11.125 3.1875 C-7.5841408 -0.45750212 -5.02152545 -0.5106636 0 0 Z " fill="#F9FCFE" transform="translate(75,64)"/>
<path d="M0 0 C0.04254356 1.99954746 0.04080783 4.00041636 0 6 C-1.58937556 7.58937556 -3.23899846 7.12981143 -5.4375 7.1328125 C-6.77941406 7.13474609 -6.77941406 7.13474609 -8.1484375 7.13671875 C-9.08945312 7.13285156 -10.03046875 7.12898438 -11 7.125 C-12.41152344 7.13080078 -12.41152344 7.13080078 -13.8515625 7.13671875 C-14.74617188 7.13542969 -15.64078125 7.13414063 -16.5625 7.1328125 C-17.38878906 7.13168457 -18.21507813 7.13055664 -19.06640625 7.12939453 C-21 7 -21 7 -22 6 C-23.63256758 5.84285346 -25.27135338 5.74914586 -26.91015625 5.68359375 C-27.89951172 5.64169922 -28.88886719 5.59980469 -29.90820312 5.55664062 C-30.94912109 5.51732422 -31.99003906 5.47800781 -33.0625 5.4375 C-34.10728516 5.39431641 -35.15207031 5.35113281 -36.22851562 5.30664062 C-38.81886884 5.20018775 -41.40932186 5.0981724 -44 5 C-43.67 3.68 -43.34 2.36 -43 1 C-28.65239711 0.17846037 -14.37042994 -0.13523642 0 0 Z " fill="#EB5450" transform="translate(48,87)"/>
<path d="M0 0 C2.49505962 2.49505962 2.35948376 3.67328888 2.625 7.125 C2.69976562 8.03507812 2.77453125 8.94515625 2.8515625 9.8828125 C2.90054688 10.58148438 2.94953125 11.28015625 3 12 C-11.90210376 14.06597348 -26.02777126 14.2001765 -40 8 C-41.9375 6.33203125 -41.9375 6.33203125 -43 5 C-42.67 4.01 -42.34 3.02 -42 2 C-40.88625 2.61875 -39.7725 3.2375 -38.625 3.875 C-30.53100316 7.89725695 -21.77571943 8.32497575 -12.875 8.625 C-11.44027344 8.68300781 -11.44027344 8.68300781 -9.9765625 8.7421875 C-7.65121801 8.83520128 -5.32585665 8.92103771 -3 9 C-3.495 5.04 -3.495 5.04 -4 1 C-2.125 0.375 -2.125 0.375 0 0 Z " fill="#5B668C" transform="translate(49,52)"/>
<path d="M0 0 C1.98 0 3.96 0 6 0 C7.65 6.6 9.3 13.2 11 20 C8.69 20 6.38 20 4 20 C3.32550034 17.60612843 2.66023359 15.21030779 2 12.8125 C1.80921875 12.13896484 1.6184375 11.46542969 1.421875 10.77148438 C0.4174164 7.09444844 -0.23704741 3.8149818 0 0 Z " fill="#596489" transform="translate(38,2)"/>
<path d="M0 0 C3.03901852 5.82478551 3.3540919 10.48208608 3 17 C1.35 17.33 -0.3 17.66 -2 18 C-2.99 15.69 -3.98 13.38 -5 11 C-6.32 11 -7.64 11 -9 11 C-8.67 9.68 -8.34 8.36 -8 7 C-7.01 7 -6.02 7 -5 7 C-5.33 5.02 -5.66 3.04 -6 1 C-4 0 -4 0 0 0 Z " fill="#867A93" transform="translate(54,42)"/>
<path d="M0 0 C1.98 0 3.96 0 6 0 C6.67076489 2.76989964 7.33676317 5.54079742 8 8.3125 C8.19078125 9.09818359 8.3815625 9.88386719 8.578125 10.69335938 C8.75859375 11.45068359 8.9390625 12.20800781 9.125 12.98828125 C9.29257812 13.68477783 9.46015625 14.38127441 9.6328125 15.09887695 C10 17 10 17 10 20 C8.35 20 6.7 20 5 20 C4.16169027 17.23058394 3.32917966 14.45964931 2.5 11.6875 C2.26152344 10.90181641 2.02304687 10.11613281 1.77734375 9.30664062 C1.55175781 8.54931641 1.32617188 7.79199219 1.09375 7.01171875 C0.88427734 6.31522217 0.67480469 5.61872559 0.45898438 4.90112305 C0 3 0 3 0 0 Z " fill="#3E4B76" transform="translate(32,2)"/>
<path d="M0 0 C1.98 0 3.96 0 6 0 C9.44419134 11.52164009 9.44419134 11.52164009 9 17 C7.35 17 5.7 17 4 17 C1.60251894 11.26689311 0.41588046 6.19518473 0 0 Z " fill="#897399" transform="translate(43,22)"/>
<path d="M0 0 C6.93 0 13.86 0 21 0 C21 1.32 21 2.64 21 4 C13.74 4 6.48 4 -1 4 C-0.67 2.68 -0.34 1.36 0 0 Z " fill="#B3B3BB" transform="translate(5,88)"/>
<path d="M0 0 C7.26 0.66 14.52 1.32 22 2 C22.33 3.32 22.66 4.64 23 6 C15.40501039 6.26442904 8.42640842 5.60881575 1 4 C0.67 2.68 0.34 1.36 0 0 Z " fill="#5C678D" transform="translate(19,38)"/>
<path d="M0 0 C6.27 0 12.54 0 19 0 C19.33 1.32 19.66 2.64 20 4 C13.4 4 6.8 4 0 4 C0 2.68 0 1.36 0 0 Z " fill="#B2B4BC" transform="translate(48,88)"/>
<path d="M0 0 C0.99 0.33 1.98 0.66 3 1 C4.25 4.4375 4.25 4.4375 5 8 C4.67 8.66 4.34 9.32 4 10 C1.4375 10.625 1.4375 10.625 -1 11 C-1.33 12.98 -1.66 14.96 -2 17 C-4.21399303 13.20458337 -5.00980198 9.24370579 -6 5 C-4.35 5 -2.7 5 -1 5 C-0.67 3.35 -0.34 1.7 0 0 Z " fill="#536096" transform="translate(53,59)"/>
<path d="M0 0 C1.13764351 4.26616316 2 7.56486311 2 12 C-5.15291751 9.93360161 -5.15291751 9.93360161 -7 7 C-6.875 4.4375 -6.875 4.4375 -6 2 C-3 0 -3 0 0 0 Z " fill="#3F4D78" transform="translate(12,7)"/>
<path d="M0 0 C1.30324219 0.52400391 1.30324219 0.52400391 2.6328125 1.05859375 C3.78523437 1.51363281 4.93765625 1.96867187 6.125 2.4375 C7.83042969 3.11619141 7.83042969 3.11619141 9.5703125 3.80859375 C12.74206741 4.91039927 15.67942748 5.56095774 19 6 C19 7.32 19 8.64 19 10 C4.86163522 7.86163522 4.86163522 7.86163522 0 3 C0 2.01 0 1.02 0 0 Z " fill="#3D4A76" transform="translate(6,54)"/>
<path d="M0 0 C2.49505962 2.49505962 2.35948376 3.67328888 2.625 7.125 C2.69976562 8.03507812 2.77453125 8.94515625 2.8515625 9.8828125 C2.90054688 10.58148438 2.94953125 11.28015625 3 12 C1.35 12 -0.3 12 -2 12 C-3.19287411 8.12315913 -4 5.08378077 -4 1 C-2.125 0.375 -2.125 0.375 0 0 Z " fill="#525E97" transform="translate(49,52)"/>
<path d="M0 0 C0.33 0.99 0.66 1.98 1 3 C-2.33114085 7.02512852 -6.06100148 8.66129814 -11 10 C-11.99 10 -12.98 10 -14 10 C-14 8.68 -14 7.36 -14 6 C-13.15695313 5.73445313 -12.31390625 5.46890625 -11.4453125 5.1953125 C-10.34960938 4.84210937 -9.25390625 4.48890625 -8.125 4.125 C-7.03445312 3.77695312 -5.94390625 3.42890625 -4.8203125 3.0703125 C-1.91477277 2.18824769 -1.91477277 2.18824769 0 0 Z " fill="#3E4B77" transform="translate(67,32)"/>
<path d="M0 0 C0.82951172 0.43699219 0.82951172 0.43699219 1.67578125 0.8828125 C4.96874928 2.46565092 8.40763724 3.60324695 11.85546875 4.8046875 C14 6 14 6 14.80078125 8.1328125 C14.89939453 9.05707031 14.89939453 9.05707031 15 10 C9.49866973 8.86179374 5.42609211 7.67041785 1 4 C0.125 1.75 0.125 1.75 0 0 Z " fill="#3E4B77" transform="translate(5,32)"/>
<path d="M0 0 C2.29013653 3.4352048 2.17842973 4.985331 2 9 C0.35 9 -1.3 9 -3 9 C-4.42944945 6.64561267 -5.08661261 5.51967567 -4.625 2.75 C-4.41875 2.1725 -4.2125 1.595 -4 1 C-2.68 0.67 -1.36 0.34 0 0 Z " fill="#6A74A7" transform="translate(50,30)"/>
<path d="M0 0 C4.62 0.66 9.24 1.32 14 2 C14 2.99 14 3.98 14 5 C8.34605369 5.34615998 4.96993194 4.43425238 0 2 C0 1.34 0 0.68 0 0 Z " fill="#B3B4C1" transform="translate(11,27)"/>
<path d="M0 0 C4.29 0.66 8.58 1.32 13 2 C13.33 2.99 13.66 3.98 14 5 C12.22844346 4.88570603 10.45773771 4.75816963 8.6875 4.625 C7.70136719 4.55539063 6.71523438 4.48578125 5.69921875 4.4140625 C3 4 3 4 0 2 C0 1.34 0 0.68 0 0 Z " fill="#ABADB9" transform="translate(11,48)"/>
<path d="M0 0 C4.62 0.99 9.24 1.98 14 3 C14 3.66 14 4.32 14 5 C8.32723489 5.29341888 5.00932754 5.00559652 0 2 C0 1.34 0 0.68 0 0 Z " fill="#ADAEB8" transform="translate(11,69)"/>
<path d="M0 0 C2.375 -0.1875 2.375 -0.1875 5 0 C5.66 0.99 6.32 1.98 7 3 C4.69 3.33 2.38 3.66 0 4 C0 2.68 0 1.36 0 0 Z " fill="#51619B" transform="translate(51,77)"/>
<path d="M0 0 C1.9375 0.3125 1.9375 0.3125 4 1 C4.33 1.99 4.66 2.98 5 4 C4.67 4.66 4.34 5.32 4 6 C3.01 6 2.02 6 1 6 C0.67 4.02 0.34 2.04 0 0 Z " fill="#6A7AAD" transform="translate(53,63)"/>
<path d="M0 0 C1.32 0 2.64 0 4 0 C4 1.65 4 3.3 4 5 C2.68 5 1.36 5 0 5 C0 3.35 0 1.7 0 0 Z " fill="#AFAFB9" transform="translate(35,82)"/>
<path d="M0 0 C1.65 0 3.3 0 5 0 C5 1.32 5 2.64 5 4 C3.35 4 1.7 4 0 4 C0 2.68 0 1.36 0 0 Z " fill="#3E4B77" transform="translate(47,60)"/>
<path d="M0 0 C2.31 0.33 4.62 0.66 7 1 C6.67 1.99 6.34 2.98 6 4 C4.02 3.34 2.04 2.68 0 2 C0 1.34 0 0.68 0 0 Z " fill="#A9ABB8" transform="translate(11,27)"/>
</svg>
