<?xml version="1.0" encoding="UTF-8"?>
<svg version="1.1" xmlns="http://www.w3.org/2000/svg" width="64" height="64">
<path d="M0 0 C1.98 0 3.96 0 6 0 C6 1.98 6 3.96 6 6 C4.02 6 2.04 6 0 6 C0 5.34 0 4.68 0 4 C-1.65 4 -3.3 4 -5 4 C-5 11.59 -5 19.18 -5 27 C-3.35 27 -1.7 27 0 27 C0 26.34 0 25.68 0 25 C1.98 25 3.96 25 6 25 C6 26.98 6 28.96 6 31 C4.02 31 2.04 31 0 31 C0 30.34 0 29.68 0 29 C-1.65 29 -3.3 29 -5 29 C-5 36.59 -5 44.18 -5 52 C-3.35 52 -1.7 52 0 52 C0 51.34 0 50.68 0 50 C1.98 50 3.96 50 6 50 C6 51.98 6 53.96 6 56 C4.02 56 2.04 56 0 56 C0 55.34 0 54.68 0 54 C-2.31 54 -4.62 54 -7 54 C-7 45.75 -7 37.5 -7 29 C-9.64 29 -12.28 29 -15 29 C-14.95359375 30.04800781 -14.9071875 31.09601562 -14.859375 32.17578125 C-14.82185452 33.55465901 -14.78545464 34.93356758 -14.75 36.3125 C-14.69972656 37.34793945 -14.69972656 37.34793945 -14.6484375 38.40429688 C-14.54944228 43.52729949 -14.54944228 43.52729949 -16.828125 45.91796875 C-21.83017492 48.40999722 -26.34605107 48.21874082 -31.8125 48.25 C-32.70259766 48.270625 -33.59269531 48.29125 -34.50976562 48.3125 C-39.78879981 48.34380636 -43.41552723 47.92343191 -48 45 C-50.04447988 42.95552012 -49.21215077 38.72543095 -49.23828125 35.9140625 C-49.246353 35.10133881 -49.25442474 34.28861511 -49.26274109 33.45126343 C-49.27659664 31.72794742 -49.28731219 30.00460381 -49.29516602 28.28125 C-49.31238449 25.64270142 -49.35625598 23.00540385 -49.40039062 20.3671875 C-49.41051665 18.69532174 -49.41903304 17.0234453 -49.42578125 15.3515625 C-49.44328934 14.56085358 -49.46079742 13.77014465 -49.47883606 12.95547485 C-49.45713806 7.48705563 -49.45713806 7.48705563 -47.16088867 5.04052734 C-42.13865074 2.62218161 -37.64905283 2.78123118 -32.1875 2.75 C-31.29740234 2.729375 -30.40730469 2.70875 -29.49023438 2.6875 C-24.21120019 2.65619364 -20.58447277 3.07656809 -16 6 C-15 7 -15 7 -14.88647461 8.94946289 C-14.89171143 9.7821167 -14.89694824 10.61477051 -14.90234375 11.47265625 C-14.90556641 12.37177734 -14.90878906 13.27089844 -14.91210938 14.19726562 C-14.92467773 15.61555664 -14.92467773 15.61555664 -14.9375 17.0625 C-14.94201172 18.01189453 -14.94652344 18.96128906 -14.95117188 19.93945312 C-14.9629989 22.29303065 -14.97947975 24.64648477 -15 27 C-12.36 27 -9.72 27 -7 27 C-7 18.75 -7 10.5 -7 2 C-4.69 2 -2.38 2 0 2 C0 1.34 0 0.68 0 0 Z " fill="#586981" transform="translate(53,4)"/>
<path d="M0 0 C0.89009766 -0.020625 1.78019531 -0.04125 2.69726562 -0.0625 C7.97629981 -0.09380636 11.60302723 0.32656809 16.1875 3.25 C18.18054037 5.24304037 17.50703796 8.91240192 17.5625 11.625 C17.61857422 12.65367188 17.61857422 12.65367188 17.67578125 13.703125 C17.7109375 15.7109375 17.7109375 15.7109375 17.1875 19.25 C10.41232483 24.95418528 0.5195594 23.73624283 -7.8125 23.25 C-11.0567459 22.51040268 -14.38551871 21.67698129 -16.8125 19.25 C-16.99270629 16.77437918 -17.09045445 14.3530672 -17.125 11.875 C-17.15400391 11.18921875 -17.18300781 10.5034375 -17.21289062 9.796875 C-17.27690021 4.73519425 -17.27690021 4.73519425 -14.98046875 2.3359375 C-9.98472131 -0.1664369 -5.46390278 0.03124462 0 0 Z " fill="#39536A" transform="translate(20.8125,6.75)"/>
<path d="M0 0 C0.83917969 0.433125 0.83917969 0.433125 1.6953125 0.875 C9.88487138 4.66695009 18.35937997 5.63987951 27.1171875 3.09375 C29.47705 2.15782719 31.74506416 1.16383785 34 0 C34.10807131 1.93627769 34.1856225 3.87427756 34.25 5.8125 C34.29640625 6.89144531 34.3428125 7.97039063 34.390625 9.08203125 C34 12 34 12 32.171875 13.82421875 C27.23927248 16.49456652 22.65058471 16.21876006 17.1875 16.25 C16.29740234 16.270625 15.40730469 16.29125 14.49023438 16.3125 C9.21120019 16.34380636 5.58447277 15.92343191 1 13 C0 12 0 12 -0.09765625 9.27734375 C-0.08605469 8.17519531 -0.07445312 7.07304688 -0.0625 5.9375 C-0.05347656 4.83277344 -0.04445312 3.72804687 -0.03515625 2.58984375 C-0.02355469 1.73519531 -0.01195312 0.88054688 0 0 Z " fill="#385369" transform="translate(4,36)"/>
<path d="M0 0 C1.31484375 -0.01740234 1.31484375 -0.01740234 2.65625 -0.03515625 C7.82341253 -0.01181064 11.56405962 0.42959264 16 3.375 C16.875 5.5625 16.875 5.5625 17 7.375 C9.98819447 13.30806621 1.74930727 13.04265784 -7 12.375 C-10.9487206 11.46149001 -14.08103831 10.29396169 -17 7.375 C-17 5.4375 -17 5.4375 -16 3.375 C-10.75033825 -0.0827099 -6.06340037 -0.08025089 0 0 Z " fill="#526781" transform="translate(21,6.625)"/>
<path d="M0 0 C1.98 0 3.96 0 6 0 C6 1.98 6 3.96 6 6 C4.02 6 2.04 6 0 6 C0 5.34 0 4.68 0 4 C-1.65 4 -3.3 4 -5 4 C-5 11.59 -5 19.18 -5 27 C-3.35 27 -1.7 27 0 27 C0 26.34 0 25.68 0 25 C1.98 25 3.96 25 6 25 C6 26.98 6 28.96 6 31 C4.02 31 2.04 31 0 31 C0 30.34 0 29.68 0 29 C-1.65 29 -3.3 29 -5 29 C-5 36.59 -5 44.18 -5 52 C-3.35 52 -1.7 52 0 52 C0 51.34 0 50.68 0 50 C1.98 50 3.96 50 6 50 C6 51.98 6 53.96 6 56 C4.02 56 2.04 56 0 56 C0 55.34 0 54.68 0 54 C-2.31 54 -4.62 54 -7 54 C-7 45.75 -7 37.5 -7 29 C-9.64 29 -12.28 29 -15 29 C-15 28.34 -15 27.68 -15 27 C-12.36 27 -9.72 27 -7 27 C-7 18.75 -7 10.5 -7 2 C-4.69 2 -2.38 2 0 2 C0 1.34 0 0.68 0 0 Z " fill="#92A5C6" transform="translate(53,4)"/>
<path d="M0 0 C-0.33 0.99 -0.66 1.98 -1 3 C-4.76300374 4.25433458 -8.27210909 4.10695422 -12.1875 4.0625 C-12.93708984 4.05798828 -13.68667969 4.05347656 -14.45898438 4.04882812 C-16.30602383 4.03706354 -18.15302213 4.01912865 -20 4 C-20 3.34 -20 2.68 -20 2 C-19.03578125 1.93941406 -18.0715625 1.87882812 -17.078125 1.81640625 C-15.81484375 1.73261719 -14.5515625 1.64882813 -13.25 1.5625 C-11.99703125 1.48128906 -10.7440625 1.40007813 -9.453125 1.31640625 C-6.25794727 1.02363544 -3.17641562 0 0 0 Z " fill="#8095B5" transform="translate(35,43)"/>
<path d="M0 0 C-0.33 0.99 -0.66 1.98 -1 3 C-4.76300374 4.25433458 -8.27210909 4.10695422 -12.1875 4.0625 C-12.93708984 4.05798828 -13.68667969 4.05347656 -14.45898438 4.04882812 C-16.30602383 4.03706354 -18.15302213 4.01912865 -20 4 C-20 3.34 -20 2.68 -20 2 C-19.03578125 1.93941406 -18.0715625 1.87882812 -17.078125 1.81640625 C-15.81484375 1.73261719 -14.5515625 1.64882813 -13.25 1.5625 C-11.99703125 1.48128906 -10.7440625 1.40007813 -9.453125 1.31640625 C-6.25794727 1.02363544 -3.17641562 0 0 0 Z " fill="#869ABA" transform="translate(35,32)"/>
<path d="M0 0 C-0.33 0.99 -0.66 1.98 -1 3 C-4.76300374 4.25433458 -8.27210909 4.10695422 -12.1875 4.0625 C-12.93708984 4.05798828 -13.68667969 4.05347656 -14.45898438 4.04882812 C-16.30602383 4.03706354 -18.15302213 4.01912865 -20 4 C-20 3.34 -20 2.68 -20 2 C-19.03578125 1.93941406 -18.0715625 1.87882812 -17.078125 1.81640625 C-15.81484375 1.73261719 -14.5515625 1.64882813 -13.25 1.5625 C-11.99703125 1.48128906 -10.7440625 1.40007813 -9.453125 1.31640625 C-6.25794727 1.02363544 -3.17641562 0 0 0 Z " fill="#8095B5" transform="translate(35,21)"/>
<path d="M0 0 C1.98 0 3.96 0 6 0 C6 1.98 6 3.96 6 6 C4.02 6 2.04 6 0 6 C0 4.02 0 2.04 0 0 Z " fill="#EEAD63" transform="translate(53,54)"/>
<path d="M0 0 C1.98 0 3.96 0 6 0 C6 1.98 6 3.96 6 6 C4.02 6 2.04 6 0 6 C0 4.02 0 2.04 0 0 Z " fill="#EEAD63" transform="translate(53,29)"/>
<path d="M0 0 C1.98 0 3.96 0 6 0 C6 1.98 6 3.96 6 6 C4.02 6 2.04 6 0 6 C0 4.02 0 2.04 0 0 Z " fill="#EEAD63" transform="translate(53,4)"/>
</svg>
