<?xml version="1.0" encoding="UTF-8"?>
<svg version="1.1" xmlns="http://www.w3.org/2000/svg" width="96" height="96">
<path d="M0 0 C3.1328351 1.12309183 4.2377043 3.01238094 6.0703125 5.7421875 C6.57151794 8.61888123 6.57151794 8.61888123 6.57202148 11.81420898 C6.58140244 13.01573105 6.59078339 14.21725311 6.60044861 15.45518494 C6.58921463 16.74485672 6.57798065 18.0345285 6.56640625 19.36328125 C6.56656137 20.70939716 6.5680525 22.05551351 6.57081604 23.40162659 C6.57219803 26.21855492 6.55967842 29.03497287 6.53686523 31.85180664 C6.50850771 35.45087428 6.51121276 39.04909272 6.52395535 42.64822292 C6.53093328 45.4270596 6.52309889 48.20570233 6.51069832 50.98451424 C6.50402557 52.95307948 6.50831408 54.92167209 6.51280212 56.89024353 C6.49377586 58.69725487 6.49377586 58.69725487 6.47436523 60.54077148 C6.46896225 61.59602524 6.46355927 62.65127899 6.45799255 63.73851013 C5.9205469 67.90254519 4.56293831 71.4488036 1.34375 74.23828125 C-3.90452442 76.84082062 -8.26586911 77.57797394 -13.9296875 75.7421875 C-16.40485346 74.27843432 -17.91317646 72.86210936 -19.9296875 70.7421875 C-19.9296875 70.0821875 -19.9296875 69.4221875 -19.9296875 68.7421875 C-20.8165625 68.6803125 -21.7034375 68.6184375 -22.6171875 68.5546875 C-27.3619757 67.39087153 -29.61048222 64.75240507 -32.2421875 60.7421875 C-33.0946827 58.26220146 -33.20382458 56.34648978 -32.9296875 53.7421875 C-32.2696875 53.0821875 -31.6096875 52.4221875 -30.9296875 51.7421875 C-31.5484375 51.1646875 -32.1671875 50.5871875 -32.8046875 49.9921875 C-35.47109966 47.16892757 -36.90168118 45.21952074 -36.9765625 41.26953125 C-36.87859375 40.41488281 -36.780625 39.56023438 -36.6796875 38.6796875 C-36.59203125 37.82246094 -36.504375 36.96523438 -36.4140625 36.08203125 C-35.9296875 33.7421875 -35.9296875 33.7421875 -33.9296875 30.7421875 C-33.65916267 28.66068177 -33.65916267 28.66068177 -33.6171875 26.4296875 C-33.16384622 21.38523549 -31.62002671 19.16893105 -27.9296875 15.7421875 C-26.9396875 15.7421875 -25.9496875 15.7421875 -24.9296875 15.7421875 C-24.836875 14.659375 -24.836875 14.659375 -24.7421875 13.5546875 C-23.63716184 9.72959868 -22.05141668 8.1852799 -18.9296875 5.7421875 C-16.60150786 5.37458019 -14.267849 5.03977169 -11.9296875 4.7421875 C-9.61591603 2.84634641 -9.61591603 2.84634641 -7.9296875 0.7421875 C-5.24254938 -0.60138156 -2.93286975 -0.18957713 0 0 Z " fill="#E4E0E0" transform="translate(39.9296875,10.2578125)"/>
<path d="M0 0 C3.1328351 1.12309183 4.2377043 3.01238094 6.0703125 5.7421875 C6.57151794 8.61888123 6.57151794 8.61888123 6.57202148 11.81420898 C6.58140244 13.01573105 6.59078339 14.21725311 6.60044861 15.45518494 C6.58921463 16.74485672 6.57798065 18.0345285 6.56640625 19.36328125 C6.56656137 20.70939716 6.5680525 22.05551351 6.57081604 23.40162659 C6.57219803 26.21855492 6.55967842 29.03497287 6.53686523 31.85180664 C6.50850771 35.45087428 6.51121276 39.04909272 6.52395535 42.64822292 C6.53093328 45.4270596 6.52309889 48.20570233 6.51069832 50.98451424 C6.50402557 52.95307948 6.50831408 54.92167209 6.51280212 56.89024353 C6.49377586 58.69725487 6.49377586 58.69725487 6.47436523 60.54077148 C6.46896225 61.59602524 6.46355927 62.65127899 6.45799255 63.73851013 C5.9205469 67.90254519 4.56293831 71.4488036 1.34375 74.23828125 C-3.90452442 76.84082062 -8.26586911 77.57797394 -13.9296875 75.7421875 C-16.40485346 74.27843432 -17.91317646 72.86210936 -19.9296875 70.7421875 C-19.9296875 70.0821875 -19.9296875 69.4221875 -19.9296875 68.7421875 C-20.8165625 68.6803125 -21.7034375 68.6184375 -22.6171875 68.5546875 C-27.3619757 67.39087153 -29.61048222 64.75240507 -32.2421875 60.7421875 C-33.07396707 58.32246511 -33.07083661 56.2828714 -32.9296875 53.7421875 C-30.9496875 53.2471875 -30.9496875 53.2471875 -28.9296875 52.7421875 C-28.66414063 53.29648437 -28.39859375 53.85078125 -28.125 54.421875 C-27.77179687 55.14632812 -27.41859375 55.87078125 -27.0546875 56.6171875 C-26.70664062 57.33648437 -26.35859375 58.05578125 -26 58.796875 C-24.96411207 60.89353769 -24.96411207 60.89353769 -22.9296875 62.7421875 C-21.1971875 63.1753125 -21.1971875 63.1753125 -19.4296875 63.6171875 C-15.9296875 64.7421875 -15.9296875 64.7421875 -14.6796875 66.7421875 C-14.3084375 67.7321875 -14.3084375 67.7321875 -13.9296875 68.7421875 C-10.41144239 71.08768424 -9.07193056 71.32210153 -4.9296875 70.7421875 C-2.32916556 69.09276804 -1.35055568 68.37856416 0.0703125 65.7421875 C0.77990416 61.27706516 0.65063621 56.85856297 0.55859375 52.34765625 C0.54798164 50.39391838 0.54798164 50.39391838 0.53715515 48.40071106 C0.51812763 44.94954866 0.46906689 41.49945011 0.41363525 38.04870605 C0.36234899 34.52285146 0.33962133 30.99682377 0.31445312 27.47070312 C0.26094148 20.56076281 0.17568222 13.65152633 0.0703125 6.7421875 C-3.40116592 5.99261593 -3.40116592 5.99261593 -6.9296875 5.7421875 C-7.5896875 7.7221875 -8.2496875 9.7021875 -8.9296875 11.7421875 C-10.0228125 11.5153125 -11.1159375 11.2884375 -12.2421875 11.0546875 C-15.77319481 10.4075059 -15.77319481 10.4075059 -17.9296875 11.8671875 C-19.1169758 13.75589339 -19.1169758 13.75589339 -18.9921875 16.2421875 C-17.4982125 19.7574228 -15.37166377 20.35075029 -11.9296875 21.7421875 C-12.2596875 22.7321875 -12.5896875 23.7221875 -12.9296875 24.7421875 C-15.6796875 24.9921875 -15.6796875 24.9921875 -18.9296875 24.7421875 C-21.3046875 22.7421875 -21.3046875 22.7421875 -22.9296875 20.7421875 C-24.9096875 21.7321875 -24.9096875 21.7321875 -26.9296875 22.7421875 C-26.9296875 24.3921875 -26.9296875 26.0421875 -26.9296875 27.7421875 C-25.6096875 28.0721875 -24.2896875 28.4021875 -22.9296875 28.7421875 C-22.9296875 30.0621875 -22.9296875 31.3821875 -22.9296875 32.7421875 C-23.8784375 33.0103125 -24.8271875 33.2784375 -25.8046875 33.5546875 C-29.18236023 34.49205338 -29.18236023 34.49205338 -30.9296875 37.7421875 C-30.75104463 41.07685435 -30.48573727 43.7282144 -28.8671875 46.6796875 C-25.66002444 48.43845434 -22.4374279 48.35038442 -18.9296875 47.7421875 C-16.30685416 46.45326463 -16.30685416 46.45326463 -14.9296875 43.7421875 C-14.32648561 40.74680033 -14.06003389 37.79229313 -13.9296875 34.7421875 C-11.9921875 34.1796875 -11.9921875 34.1796875 -9.9296875 33.7421875 C-8.9296875 34.7421875 -8.9296875 34.7421875 -8.6796875 38.4296875 C-8.76519606 43.74071935 -10.45819572 47.14085821 -14.0546875 51.0546875 C-17.99007033 53.36458612 -21.39080959 53.92125129 -25.9296875 53.7421875 C-30.54301717 52.53213382 -32.41117606 51.37736401 -35.4296875 47.6796875 C-37.68159576 43.16624744 -37.11711207 38.52533434 -35.9296875 33.7421875 C-35.2696875 32.7521875 -34.6096875 31.7621875 -33.9296875 30.7421875 C-33.65916267 28.66068177 -33.65916267 28.66068177 -33.6171875 26.4296875 C-33.16384622 21.38523549 -31.62002671 19.16893105 -27.9296875 15.7421875 C-26.9396875 15.7421875 -25.9496875 15.7421875 -24.9296875 15.7421875 C-24.836875 14.659375 -24.836875 14.659375 -24.7421875 13.5546875 C-23.63716184 9.72959868 -22.05141668 8.1852799 -18.9296875 5.7421875 C-16.60150786 5.37458019 -14.267849 5.03977169 -11.9296875 4.7421875 C-9.61591603 2.84634641 -9.61591603 2.84634641 -7.9296875 0.7421875 C-5.24254938 -0.60138156 -2.93286975 -0.18957713 0 0 Z " fill="#495058" transform="translate(39.9296875,10.2578125)"/>
<path d="M0 0 C2.875 1.5 2.875 1.5 5 4 C5.71730941 6.8229596 5.71730941 9.1770404 5 12 C2.41832046 15.03727005 0.87501007 15.87499856 -3.0625 16.4375 C-6.27786536 15.9586158 -7.71595281 15.28404719 -10 13 C-10 12.34 -10 11.68 -10 11 C-17.92 11 -25.84 11 -34 11 C-34.33 9.35 -34.66 7.7 -35 6 C-34 5 -34 5 -31.68334961 4.88647461 C-30.68311768 4.89171143 -29.68288574 4.89694824 -28.65234375 4.90234375 C-27.57275391 4.90556641 -26.49316406 4.90878906 -25.38085938 4.91210938 C-23.67639648 4.92467773 -23.67639648 4.92467773 -21.9375 4.9375 C-20.22723633 4.94426758 -20.22723633 4.94426758 -18.48242188 4.95117188 C-15.65489649 4.96300253 -12.8274736 4.9794859 -10 5 C-9.71125 4.360625 -9.4225 3.72125 -9.125 3.0625 C-7.02357502 -0.79011246 -4.056247 -0.39767127 0 0 Z " fill="#71C2FE" transform="translate(86,40)"/>
<path d="M0 0 C14.30665235 -0.92744205 14.30665235 -0.92744205 18.375 1.30078125 C20.0625 2.9375 20.0625 2.9375 21.55078125 4.609375 C23.93686686 6.89898814 26.82498065 6.69470968 30 7 C31.9375 8.0625 31.9375 8.0625 33 10 C33.75471698 16.79245283 33.75471698 16.79245283 31.4375 20.5 C28.05111671 22.58392818 25.90614682 22.55802097 22 22 C19.625 20.5 19.625 20.5 18 18 C17.66045417 15.97928824 17.50076105 14.04870723 17.46875 12 C16.75988558 8.97551179 15.46345264 7.85161473 13 6 C9.7374658 5.3039772 9.7374658 5.3039772 6.25 5.25 C4.49429688 5.16492187 4.49429688 5.16492187 2.703125 5.078125 C1.81109375 5.05234375 0.9190625 5.0265625 0 5 C0 3.35 0 1.7 0 0 Z " fill="#71C2FE" transform="translate(51,57)"/>
<path d="M0 0 C2.4375 1.5 2.4375 1.5 4 4 C4.60984064 6.80756825 4.66017005 9.19858274 4 12 C1.875 14.5 1.875 14.5 -1 16 C-1.969375 15.95875 -2.93875 15.9175 -3.9375 15.875 C-5.4534375 15.936875 -5.4534375 15.936875 -7 16 C-7.78375 16.99 -8.5675 17.98 -9.375 19 C-11.8489269 21.86383929 -13.0529513 22.00535817 -16.9375 22.3984375 C-20.9687118 22.44150408 -24.9777953 22.25795612 -29 22 C-29 20.35 -29 18.7 -29 17 C-28.10796875 16.97421875 -27.2159375 16.9484375 -26.296875 16.921875 C-25.12640625 16.86515625 -23.9559375 16.8084375 -22.75 16.75 C-21.00976562 16.68039063 -21.00976562 16.68039063 -19.234375 16.609375 C-15.44160433 15.89479502 -14.24361753 15.10162803 -12 12 C-11.21156051 9.50088083 -11.21156051 9.50088083 -10.9375 6.875 C-10.58984375 4.2421875 -10.58984375 4.2421875 -10 2 C-6.2794164 -0.48038907 -4.40203429 -0.46337203 0 0 Z " fill="#72C2FE" transform="translate(80,17)"/>
<path d="M0 0 C1.90625 0.484375 1.90625 0.484375 4.40625 2.609375 C6.1531468 5.95759387 6.46091566 7.7601913 5.90625 11.484375 C4.84375 13.796875 4.84375 13.796875 2.90625 15.484375 C-1.06719161 16.58810878 -3.18374772 16.89981083 -6.96875 15.171875 C-9.09375 13.484375 -9.09375 13.484375 -10.09375 11.484375 C-10.49991229 7.82891435 -10.30809253 5.89519818 -8.59375 2.609375 C-5.56459317 0.03459169 -3.88724229 -0.26108344 0 0 Z " fill="#70C2FE" transform="translate(59.09375,73.515625)"/>
<path d="M0 0 C2.562964 2.23225897 2.93752331 3.58051369 3.4375 6.9375 C2.87499856 10.87501007 2.03727005 12.41832046 -1 15 C-3.8229596 15.71730941 -6.1770404 15.71730941 -9 15 C-12.03727005 12.41832046 -12.87499856 10.87501007 -13.4375 6.9375 C-12.95374115 3.68940486 -12.30588726 2.30588726 -10 0 C-6.20519658 -1.26493447 -3.87641726 -0.89988258 0 0 Z " fill="#70C2FE" transform="translate(62,7)"/>
<path d="M0 0 C1.67542976 0.28604898 3.34385343 0.61781233 5 1 C4.67 2.32 4.34 3.64 4 5 C2.68 5 1.36 5 0 5 C-0.5625 3.0625 -0.5625 3.0625 -1 1 C-0.67 0.67 -0.34 0.34 0 0 Z " fill="#DEE0E5" transform="translate(55,79)"/>
<path d="M0 0 C1.32 0.66 2.64 1.32 4 2 C3.67 3.32 3.34 4.64 3 6 C1.35 5.67 -0.3 5.34 -2 5 C-1.125 1.125 -1.125 1.125 0 0 Z " fill="#DEE0E5" transform="translate(56,11)"/>
<path d="M0 0 C1.98 0.495 1.98 0.495 4 1 C3.67 2.65 3.34 4.3 3 6 C1.68 5.67 0.36 5.34 -1 5 C-0.67 3.35 -0.34 1.7 0 0 Z " fill="#DFE0E4" transform="translate(75,68)"/>
<path d="M0 0 C1.98 0.495 1.98 0.495 4 1 C3.67 2.65 3.34 4.3 3 6 C1.68 5.67 0.36 5.34 -1 5 C-0.67 3.35 -0.34 1.7 0 0 Z " fill="#E0E0E4" transform="translate(82,45)"/>
<path d="M0 0 C1.98 0.495 1.98 0.495 4 1 C3.67 2.65 3.34 4.3 3 6 C1.68 5.67 0.36 5.34 -1 5 C-0.67 3.35 -0.34 1.7 0 0 Z " fill="#DFE0E4" transform="translate(75,22)"/>
</svg>
