<?xml version="1.0" encoding="UTF-8"?>
<svg version="1.1" xmlns="http://www.w3.org/2000/svg" width="96" height="96">
<path d="M0 0 C9.69233104 -0.11590114 19.38442318 -0.20471862 29.07729626 -0.25906086 C33.57822857 -0.28514391 38.07868644 -0.32051776 42.5793457 -0.37719727 C46.92359892 -0.43156406 51.26739609 -0.46143027 55.61196327 -0.47438622 C57.26860038 -0.48361781 58.92521279 -0.50164546 60.5816555 -0.52865028 C62.90418601 -0.56500498 65.2248377 -0.56994301 67.54760742 -0.56762695 C68.23093643 -0.58560333 68.91426544 -0.60357971 69.61830139 -0.62210083 C73.28185999 -0.58262844 74.95443551 -0.0336101 77.93029785 2.16149902 C80.33005198 5.45265105 80.61074206 6.95669114 80.56762695 10.98364258 C80.5672493 12.16448929 80.56687164 13.345336 80.56648254 14.56196594 C80.54067612 15.82671249 80.51486969 17.09145905 80.48828125 18.39453125 C80.48120651 19.69702316 80.47413177 20.99951508 80.46684265 22.34147644 C80.44781513 25.79263884 80.39875439 29.24273739 80.34332275 32.69348145 C80.29203649 36.21933604 80.26930883 39.74536373 80.24414062 43.27148438 C80.19062898 50.18142469 80.10536972 57.09066117 80 64 C70.30766896 64.11590114 60.61557682 64.20471862 50.92270374 64.25906086 C46.42177143 64.28514391 41.92131356 64.32051776 37.4206543 64.37719727 C33.07640108 64.43156406 28.73260391 64.46143027 24.38803673 64.47438622 C22.73139962 64.48361781 21.07478721 64.50164546 19.4183445 64.52865028 C17.09581399 64.56500498 14.7751623 64.56994301 12.45239258 64.56762695 C11.76906357 64.58560333 11.08573456 64.60357971 10.38169861 64.62210083 C6.71814001 64.58262844 5.04556449 64.0336101 2.06970215 61.83850098 C-0.33005198 58.54734895 -0.61074206 57.04330886 -0.56762695 53.01635742 C-0.5672493 51.83551071 -0.56687164 50.654664 -0.56648254 49.43803406 C-0.54067612 48.17328751 -0.51486969 46.90854095 -0.48828125 45.60546875 C-0.48120651 44.30297684 -0.47413177 43.00048492 -0.46684265 41.65852356 C-0.44781513 38.20736116 -0.39875439 34.75726261 -0.34332275 31.30651855 C-0.29203649 27.78066396 -0.26930883 24.25463627 -0.24414062 20.72851562 C-0.19062898 13.81857531 -0.10536972 6.90933883 0 0 Z " fill="#B3CFBF" transform="translate(8,16)"/>
<path d="M0 0 C9.69240817 -0.11300566 19.38437814 -0.20471837 29.07729626 -0.25906086 C33.57822857 -0.28514391 38.07868644 -0.32051776 42.5793457 -0.37719727 C46.92359892 -0.43156406 51.26739609 -0.46143027 55.61196327 -0.47438622 C57.26860038 -0.48361781 58.92521279 -0.50164546 60.5816555 -0.52865028 C62.90418601 -0.56500498 65.2248377 -0.56994301 67.54760742 -0.56762695 C68.23093643 -0.58560333 68.91426544 -0.60357971 69.61830139 -0.62210083 C73.16088638 -0.58393185 74.99897691 -0.00068061 77.96577454 1.97297668 C80 5 80 5 80 14 C53.6 14.33 27.2 14.66 0 15 C0 10.05 0 5.1 0 0 Z " fill="#639C90" transform="translate(8,16)"/>
<path d="M0 0 C3.67511041 0.4126713 5.17609677 1.91466091 7.5 4.6875 C8.0671875 5.35136719 8.634375 6.01523437 9.21875 6.69921875 C11.29205237 9.37723431 13.15006439 12.16424343 15 15 C13.31101593 17.01956814 11.60206162 19.01343171 9.875 21 C9.400625 21.57234375 8.92625 22.1446875 8.4375 22.734375 C5.86250549 25.65734175 4.57307311 26.93617747 0.6328125 27.375 C-0.23601563 27.25125 -1.10484375 27.1275 -2 27 C-2 23.03869629 -0.65122875 22.17085599 2 19.3125 C2.7425 18.50425781 3.485 17.69601563 4.25 16.86328125 C5.11625 15.94095703 5.11625 15.94095703 6 15 C5.59007812 14.52949219 5.18015625 14.05898438 4.7578125 13.57421875 C4.21898437 12.95160156 3.68015625 12.32898437 3.125 11.6875 C2.59132813 11.07261719 2.05765625 10.45773438 1.5078125 9.82421875 C-0 8 -0 8 -2 5 C-1.48275862 1.48275862 -1.48275862 1.48275862 0 0 Z " fill="#639C8C" transform="translate(28,40)"/>
<path d="M0 0 C3.62484999 -0.08681476 7.24943443 -0.14032721 10.875 -0.1875 C12.42380859 -0.22520508 12.42380859 -0.22520508 14.00390625 -0.26367188 C14.99003906 -0.27333984 15.97617187 -0.28300781 16.9921875 -0.29296875 C17.90339355 -0.3086792 18.81459961 -0.32438965 19.75341797 -0.34057617 C20.49479004 -0.22818604 21.23616211 -0.1157959 22 0 C24 3 24 3 24 6 C20.37506666 6.05787784 16.75025143 6.0935542 13.125 6.125 C12.09246094 6.14175781 11.05992188 6.15851563 9.99609375 6.17578125 C9.00996094 6.18222656 8.02382813 6.18867187 7.0078125 6.1953125 C5.64100342 6.21102295 5.64100342 6.21102295 4.24658203 6.22705078 C2 6 2 6 0 4 C0 2.68 0 1.36 0 0 Z " fill="#87B3A6" transform="translate(48,62)"/>
</svg>
