<?xml version="1.0" encoding="UTF-8"?>
<svg version="1.1" xmlns="http://www.w3.org/2000/svg" width="96" height="96">
<path d="M0 0 C0.433125 0.52078125 0.86625 1.0415625 1.3125 1.578125 C3.83050604 3.69977824 6.00908369 3.37343538 9.25 3.4375 C15.84124318 3.81832738 19.70910076 4.70910076 24.4921875 9.4921875 C28.58955162 14.14512642 29.05978551 17.18188551 28.75 23.1875 C28.69029017 27.69559246 28.77179393 30.43000091 31.5 34.0625 C35.159393 38.99381878 34.8338803 44.09930413 34 50 C32.4020145 56.02470308 29.27256516 59.05691443 24 62.1875 C22 63 22 63 18 63 C17.84724609 64.10988281 17.84724609 64.10988281 17.69140625 65.2421875 C16.52509851 69.89423982 13.52471715 72.86239051 10 76 C5.24420023 78.81066836 0.49452893 79.59940316 -5 79 C-11.3547486 76.77583799 -11.3547486 76.77583799 -13.3125 74.421875 C-15.83050604 72.30022176 -18.00908369 72.62656462 -21.25 72.5625 C-27.84124318 72.18167262 -31.70910076 71.29089924 -36.4921875 66.5078125 C-40.58955162 61.85487358 -41.05978551 58.81811449 -40.75 52.8125 C-40.69029017 48.30440754 -40.77179393 45.56999909 -43.5 41.9375 C-47.151991 37.01615601 -46.85509241 31.89063657 -46 26 C-44.39229698 20.73220714 -41.83749696 16.81249823 -37 14 C-33.1875 13.25 -33.1875 13.25 -30 13 C-29.89816406 12.26007812 -29.79632812 11.52015625 -29.69140625 10.7578125 C-28.52509851 6.10576018 -25.52471715 3.13760949 -22 0 C-14.64804909 -4.3449886 -7.50013506 -3.89430089 0 0 Z M-22.8125 8.0625 C-26.88629023 13.53301831 -26.29020662 18.2735111 -26.375 24.9375 C-26.41238281 26.04802734 -26.44976563 27.15855469 -26.48828125 28.30273438 C-26.49988281 29.36685547 -26.51148437 30.43097656 -26.5234375 31.52734375 C-26.54325684 32.50437256 -26.56307617 33.48140137 -26.58349609 34.48803711 C-26.22704193 37.23099062 -26.22704193 37.23099062 -23.59228516 38.84204102 C-21.16884362 40.13595104 -21.16884362 40.13595104 -19 40 C-19.08902588 39.35562988 -19.17805176 38.71125977 -19.26977539 38.04736328 C-20.98917354 23.74678448 -20.98917354 23.74678448 -19 17 C-14.73569988 11.70737583 -8.2155627 9.3047202 -2 7 C-2.68054376 3.99273731 -2.68054376 3.99273731 -4.625 2.8125 C-11.85055895 0.34059826 -17.96993377 2.3874009 -22.8125 8.0625 Z M-0.9375 11.75 C-1.62779297 12.09804688 -2.31808594 12.44609375 -3.02929688 12.8046875 C-7.21339291 14.94631011 -11.29093572 17.10175442 -15 20 C-15.50125283 23.66857722 -15.50125283 23.66857722 -15 27 C-10.00590786 25.21234202 -5.63433026 22.47584315 -1.171875 19.65820312 C1.43788655 18.09518289 3.40785161 16.99907041 6.48828125 17.00390625 C10.62300679 18.64364966 14.31475632 20.97638387 18.09179688 23.29296875 C19.69620862 24.25046795 21.34552292 25.13187134 23 26 C23.66 25.67 24.32 25.34 25 25 C24.56486181 19.56077257 23.60096721 16.15496216 20 12 C12.15956862 6.70196791 7.10842579 7.53653468 -0.9375 11.75 Z M-38.3671875 22.16796875 C-41.05782963 25.18689497 -41.95612518 27.97814114 -42 32 C-41.12935742 37.78493626 -39.39751464 41.05691677 -34.734375 44.72192383 C-31.72690306 46.93815632 -28.6631288 49.01266049 -25.5 51 C-24.86191406 51.43183594 -24.22382813 51.86367188 -23.56640625 52.30859375 C-21.44451512 53.70616429 -21.44451512 53.70616429 -18 55 C-14.55421694 53.92558766 -14.55421694 53.92558766 -12 52 C-13.13648202 48.59055395 -13.53988286 48.39306229 -16.52734375 46.73828125 C-17.23697266 46.34189453 -17.94660156 45.94550781 -18.67773438 45.53710938 C-19.79631836 44.93092773 -19.79631836 44.93092773 -20.9375 44.3125 C-22.0502832 43.68891602 -22.0502832 43.68891602 -23.18554688 43.05273438 C-26.8835576 40.79839511 -26.8835576 40.79839511 -31 40 C-31 32.74 -31 25.48 -31 18 C-34.25461307 18 -36.0150394 20.06678205 -38.3671875 22.16796875 Z M0 24 C1.13648202 27.40944605 1.53988286 27.60693771 4.52734375 29.26171875 C5.59178711 29.85629883 5.59178711 29.85629883 6.67773438 30.46289062 C7.42345703 30.86701172 8.16917969 31.27113281 8.9375 31.6875 C9.67935547 32.10322266 10.42121094 32.51894531 11.18554688 32.94726562 C14.8835576 35.20160489 14.8835576 35.20160489 19 36 C19 43.26 19 50.52 19 58 C24.28923604 55.88430559 25.8354938 54.57095339 29 50 C30.65515778 45.34486874 29.65328667 41.81357291 28.27734375 37.24609375 C25.06219088 31.59253747 18.64799211 28.38921294 13.1875 25.1875 C12.1675293 24.57745117 12.1675293 24.57745117 11.12695312 23.95507812 C5.61752896 20.68677565 5.38508607 20.68610088 0 24 Z M-13.2578125 31.2421875 C-15.48722302 33.49159273 -15.76601342 34.86457985 -16 38 C-15.7562635 41.0719997 -15.42970176 42.52004673 -13.36328125 44.828125 C-11.26340794 46.28403716 -9.44252322 47.25266081 -7 48 C-4.24308557 47.66390749 -4.24308557 47.66390749 -2 46 C-1.071875 45.67 -0.14375 45.34 0.8125 45 C3.45850935 42.58079145 3.52176556 41.6241967 3.8125 38.125 C3.67742264 34.93903738 3.52353595 33.53417212 1.26953125 31.234375 C-4.5982058 27.51493512 -7.39864201 27.48630898 -13.2578125 31.2421875 Z M7 36 C7.08902588 36.64437012 7.17805176 37.28874023 7.26977539 37.95263672 C8.98917354 52.25321552 8.98917354 52.25321552 7 59 C2.73569988 64.29262417 -3.7844373 66.6952798 -10 69 C-9.31945624 72.00726269 -9.31945624 72.00726269 -7.375 73.1875 C-2.94458636 74.70316782 0.74997946 74.45000739 5.125 72.875 C9.06292318 70.30678923 11.87112583 67.25774835 14 63 C14.32157784 59.02749598 14.32430822 55.04641331 14.375 51.0625 C14.41238281 49.95197266 14.44976562 48.84144531 14.48828125 47.69726562 C14.49988281 46.63314453 14.51148437 45.56902344 14.5234375 44.47265625 C14.54325684 43.49562744 14.56307617 42.51859863 14.58349609 41.51196289 C14.22704193 38.76900938 14.22704193 38.76900938 11.59228516 37.15795898 C9.16884362 35.86404896 9.16884362 35.86404896 7 36 Z M-2.73828125 51.22265625 C-3.47626953 51.67833984 -4.21425781 52.13402344 -4.97460938 52.60351562 C-6.5265445 53.5720165 -8.07350539 54.54853652 -9.61523438 55.53320312 C-15.24359343 58.98063417 -15.24359343 58.98063417 -18.59375 59.06640625 C-22.630654 57.27732379 -26.33749053 55.00967247 -30.09179688 52.70703125 C-31.69620862 51.74953205 -33.34552292 50.86812866 -35 50 C-35.99 50.495 -35.99 50.495 -37 51 C-36.56486181 56.43922743 -35.60096721 59.84503784 -32 64 C-28.06913477 66.89367463 -25.26684497 68.03096433 -20.32421875 67.91015625 C-15.14963822 67.12115008 -11.01769676 64.62714305 -6.5625 62 C-5.74845703 61.5359375 -4.93441406 61.071875 -4.09570312 60.59375 C-0.32980778 58.59583273 -0.32980778 58.59583273 3 56 C3.04092937 53.66702567 3.04241723 51.33294775 3 49 C0.43549296 49 -0.57978662 49.85227824 -2.73828125 51.22265625 Z " fill="#3F3649" transform="translate(54,10)"/>
</svg>
